<mxfile host="app.diagrams.net" modified="2024-06-05T05:02:11.223Z" agent="Mozilla/5.0 (Windows NT 10.0; Win64; x64) AppleWebKit/537.36 (KHTML, like Gecko) Chrome/125.0.0.0 Safari/537.36" version="24.4.13" etag="Itx0-OKbEEiTaMTJ_lak" type="github">
  <diagram name="Page-1" id="hcc3_HrDKBAO_r8WP3Vl">
    <mxGraphModel>
      <root>
        <mxCell id="0" />
        <mxCell id="1" parent="0" />
      </root>
    </mxGraphModel>
  </diagram>
</mxfile>
